# xmcd
#
# Track frame offsets:
#	150
#	19433
#	34370
#	53981
#	72236
#	87732
#	103283
#	124328
#	138992
#	156909
#	173584
#	190127
#	205697
#	220019
#	235480
#	249139
#	263794
#	281258
#
# Disc length: 4053 seconds
#
# Revision: 1
# Processed by: cddbd v1.5.2PL0 Copyright (c) Steve Scherf et al.
# Submitted via: audiograbber 1.83.01
#
DISCID=0c0fd312
DTITLE=Katie Melua - The Katie Melua Collection
DYEAR=2008
DGENRE=Pop
TTITLE0=The Closest Thing to Crazy
TTITLE1=Nine Million Bicycles
TTITLE2=What a Wonderful World (with Eva Cassidy)
TTITLE3=If You Were a Sailboat
TTITLE4=Piece By Piece
TTITLE5=Call Off the Search
TTITLE6=On the Road Again
TTITLE7=Mary Pickford
TTITLE8=Spider's Web
TTITLE9=Thank You, Stars
TTITLE10=I Cried for You
TTITLE11=Crawling Up a Hill
TTITLE12=Tiger In the Night
TTITLE13=When You Taught Me How to Dance
TTITLE14=Two Bare Feet
TTITLE15=Toy Collection
TTITLE16=Somewhere In the Same Hotel
TTITLE17=Kozmic Blues
EXTD=
EXTT0=
EXTT1=
EXTT2=
EXTT3=
EXTT4=
EXTT5=
EXTT6=
EXTT7=
EXTT8=
EXTT9=
EXTT10=
EXTT11=
EXTT12=
EXTT13=
EXTT14=
EXTT15=
EXTT16=
EXTT17=
PLAYORDER=
